<svg xmlns="http://www.w3.org/2000/svg" width="1000" height="560" viewBox="0 0 1000 560">
<rect width="100%" height="100%" fill="white"/>
<text x="500.0" y="28.0" font-family="Arial, sans-serif" font-size="18" font-weight="bold" text-anchor="middle" fill="#222">Predicted phosphate torsion vs crystal</text>
<line x1="80" y1="60" x2="80" y2="410" stroke="#333"/>
<line x1="80" y1="410" x2="940" y2="410" stroke="#333"/>
<line x1="75" y1="410.0" x2="940" y2="410.0" stroke="#e8e8e8"/>
<text x="70.0" y="414.0" font-family="Arial, sans-serif" font-size="11" font-weight="normal" text-anchor="end" fill="#222">-180</text>
<line x1="75" y1="351.7" x2="940" y2="351.7" stroke="#e8e8e8"/>
<text x="70.0" y="355.7" font-family="Arial, sans-serif" font-size="11" font-weight="normal" text-anchor="end" fill="#222">-120</text>
<line x1="75" y1="293.3" x2="940" y2="293.3" stroke="#e8e8e8"/>
<text x="70.0" y="297.3" font-family="Arial, sans-serif" font-size="11" font-weight="normal" text-anchor="end" fill="#222">-60</text>
<line x1="75" y1="235.0" x2="940" y2="235.0" stroke="#e8e8e8"/>
<text x="70.0" y="239.0" font-family="Arial, sans-serif" font-size="11" font-weight="normal" text-anchor="end" fill="#222">0</text>
<line x1="75" y1="176.7" x2="940" y2="176.7" stroke="#e8e8e8"/>
<text x="70.0" y="180.7" font-family="Arial, sans-serif" font-size="11" font-weight="normal" text-anchor="end" fill="#222">60</text>
<line x1="75" y1="118.3" x2="940" y2="118.3" stroke="#e8e8e8"/>
<text x="70.0" y="122.3" font-family="Arial, sans-serif" font-size="11" font-weight="normal" text-anchor="end" fill="#222">120</text>
<line x1="75" y1="60.0" x2="940" y2="60.0" stroke="#e8e8e8"/>
<text x="70.0" y="64.0" font-family="Arial, sans-serif" font-size="11" font-weight="normal" text-anchor="end" fill="#222">180</text>
<line x1="102.9" y1="353.8" x2="200.4" y2="353.8" stroke="#222222" stroke-width="2"/>
<circle cx="115.7" cy="356.0" r="5" fill="#2f6fbb"/>
<circle cx="139.7" cy="356.0" r="5" fill="#7aa6d8"/>
<circle cx="163.7" cy="126.5" r="5" fill="#d97932"/>
<circle cx="187.7" cy="287.1" r="5" fill="#4c9a5f"/>
<text x="151.7" y="434.0" font-family="Arial, sans-serif" font-size="10" font-weight="normal" text-anchor="middle" fill="#222">CDK2</text>
<text x="151.7" y="448.0" font-family="Arial, sans-serif" font-size="10" font-weight="normal" text-anchor="middle" fill="#222">TPO</text>
<text x="151.7" y="462.0" font-family="Arial, sans-serif" font-size="10" font-weight="normal" text-anchor="middle" fill="#222">160</text>
<text x="151.7" y="476.0" font-family="Arial, sans-serif" font-size="10" font-weight="normal" text-anchor="middle" fill="#222">2CCH</text>
<line x1="246.3" y1="354.6" x2="343.7" y2="354.6" stroke="#222222" stroke-width="2"/>
<circle cx="259.0" cy="355.4" r="5" fill="#2f6fbb"/>
<circle cx="283.0" cy="355.4" r="5" fill="#7aa6d8"/>
<circle cx="307.0" cy="97.2" r="5" fill="#d97932"/>
<circle cx="331.0" cy="290.5" r="5" fill="#4c9a5f"/>
<text x="295.0" y="434.0" font-family="Arial, sans-serif" font-size="10" font-weight="normal" text-anchor="middle" fill="#222">CDK2</text>
<text x="295.0" y="448.0" font-family="Arial, sans-serif" font-size="10" font-weight="normal" text-anchor="middle" fill="#222">TPO</text>
<text x="295.0" y="462.0" font-family="Arial, sans-serif" font-size="10" font-weight="normal" text-anchor="middle" fill="#222">160</text>
<text x="295.0" y="476.0" font-family="Arial, sans-serif" font-size="10" font-weight="normal" text-anchor="middle" fill="#222">4EOJ</text>
<line x1="389.6" y1="349.5" x2="487.1" y2="349.5" stroke="#222222" stroke-width="2"/>
<circle cx="402.3" cy="356.6" r="5" fill="#2f6fbb"/>
<circle cx="426.3" cy="356.6" r="5" fill="#7aa6d8"/>
<circle cx="450.3" cy="69.1" r="5" fill="#d97932"/>
<circle cx="474.3" cy="287.3" r="5" fill="#4c9a5f"/>
<text x="438.3" y="434.0" font-family="Arial, sans-serif" font-size="10" font-weight="normal" text-anchor="middle" fill="#222">ERK2</text>
<text x="438.3" y="448.0" font-family="Arial, sans-serif" font-size="10" font-weight="normal" text-anchor="middle" fill="#222">TPO</text>
<text x="438.3" y="462.0" font-family="Arial, sans-serif" font-size="10" font-weight="normal" text-anchor="middle" fill="#222">185</text>
<text x="438.3" y="476.0" font-family="Arial, sans-serif" font-size="10" font-weight="normal" text-anchor="middle" fill="#222">4IZA</text>
<line x1="532.9" y1="358.9" x2="630.4" y2="358.9" stroke="#222222" stroke-width="2"/>
<circle cx="545.7" cy="354.5" r="5" fill="#2f6fbb"/>
<circle cx="569.7" cy="354.5" r="5" fill="#7aa6d8"/>
<circle cx="593.7" cy="384.7" r="5" fill="#d97932"/>
<circle cx="617.7" cy="293.6" r="5" fill="#4c9a5f"/>
<text x="581.7" y="434.0" font-family="Arial, sans-serif" font-size="10" font-weight="normal" text-anchor="middle" fill="#222">ERK2</text>
<text x="581.7" y="448.0" font-family="Arial, sans-serif" font-size="10" font-weight="normal" text-anchor="middle" fill="#222">TPO</text>
<text x="581.7" y="462.0" font-family="Arial, sans-serif" font-size="10" font-weight="normal" text-anchor="middle" fill="#222">185</text>
<text x="581.7" y="476.0" font-family="Arial, sans-serif" font-size="10" font-weight="normal" text-anchor="middle" fill="#222">5V62</text>
<line x1="676.3" y1="119.9" x2="773.7" y2="119.9" stroke="#222222" stroke-width="2"/>
<circle cx="689.0" cy="140.1" r="5" fill="#2f6fbb"/>
<circle cx="713.0" cy="140.1" r="5" fill="#7aa6d8"/>
<circle cx="737.0" cy="346.2" r="5" fill="#d97932"/>
<circle cx="761.0" cy="230.6" r="5" fill="#4c9a5f"/>
<text x="725.0" y="434.0" font-family="Arial, sans-serif" font-size="10" font-weight="normal" text-anchor="middle" fill="#222">ERK2</text>
<text x="725.0" y="448.0" font-family="Arial, sans-serif" font-size="10" font-weight="normal" text-anchor="middle" fill="#222">PTR</text>
<text x="725.0" y="462.0" font-family="Arial, sans-serif" font-size="10" font-weight="normal" text-anchor="middle" fill="#222">187</text>
<text x="725.0" y="476.0" font-family="Arial, sans-serif" font-size="10" font-weight="normal" text-anchor="middle" fill="#222">4IZA</text>
<line x1="819.6" y1="317.5" x2="917.1" y2="317.5" stroke="#222222" stroke-width="2"/>
<circle cx="832.3" cy="302.6" r="5" fill="#2f6fbb"/>
<circle cx="856.3" cy="330.6" r="5" fill="#7aa6d8"/>
<circle cx="880.3" cy="312.2" r="5" fill="#d97932"/>
<circle cx="904.3" cy="236.2" r="5" fill="#4c9a5f"/>
<text x="868.3" y="434.0" font-family="Arial, sans-serif" font-size="10" font-weight="normal" text-anchor="middle" fill="#222">ERK2</text>
<text x="868.3" y="448.0" font-family="Arial, sans-serif" font-size="10" font-weight="normal" text-anchor="middle" fill="#222">PTR</text>
<text x="868.3" y="462.0" font-family="Arial, sans-serif" font-size="10" font-weight="normal" text-anchor="middle" fill="#222">187</text>
<text x="868.3" y="476.0" font-family="Arial, sans-serif" font-size="10" font-weight="normal" text-anchor="middle" fill="#222">5V62</text>
<line x1="80" y1="485" x2="98" y2="485" stroke="#222222" stroke-width="2"/>
<text x="104.0" y="490.0" font-family="Arial, sans-serif" font-size="12" font-weight="normal" text-anchor="start" fill="#222">Reference</text>
<circle cx="248" cy="485" r="6" fill="#2f6fbb"/>
<text x="264.0" y="490.0" font-family="Arial, sans-serif" font-size="12" font-weight="normal" text-anchor="start" fill="#222">PhosphoFill top1</text>
<circle cx="408" cy="485" r="6" fill="#7aa6d8"/>
<text x="424.0" y="490.0" font-family="Arial, sans-serif" font-size="12" font-weight="normal" text-anchor="start" fill="#222">PhosphoFill best-of-3</text>
<circle cx="568" cy="485" r="6" fill="#d97932"/>
<text x="584.0" y="490.0" font-family="Arial, sans-serif" font-size="12" font-weight="normal" text-anchor="start" fill="#222">PyTMs optimized</text>
<circle cx="728" cy="485" r="6" fill="#4c9a5f"/>
<text x="744.0" y="490.0" font-family="Arial, sans-serif" font-size="12" font-weight="normal" text-anchor="start" fill="#222">PTM-Psi</text>
<text x="22.0" y="235.0" font-family="Arial, sans-serif" font-size="13" font-weight="normal" text-anchor="middle" fill="#222" transform="rotate(-90 22 235.0)">Torsion angle (deg)</text>
</svg>